<svg xmlns="http://www.w3.org/2000/svg" viewBox="0 0 256 256">
  <defs>
    <linearGradient id="bg" x1="32" y1="24" x2="224" y2="232" gradientUnits="userSpaceOnUse">
      <stop offset="0" stop-color="#1f2937"/>
      <stop offset="1" stop-color="#0f172a"/>
    </linearGradient>
    <linearGradient id="frame" x1="48" y1="40" x2="208" y2="216" gradientUnits="userSpaceOnUse">
      <stop offset="0" stop-color="#60a5fa"/>
      <stop offset="1" stop-color="#2563eb"/>
    </linearGradient>
    <radialGradient id="glow" cx="0.42" cy="0.34" r="0.72">
      <stop offset="0" stop-color="#f8fafc" stop-opacity="0.95"/>
      <stop offset="0.55" stop-color="#93c5fd" stop-opacity="0.78"/>
      <stop offset="1" stop-color="#1d4ed8" stop-opacity="0.12"/>
    </radialGradient>
  </defs>
  <rect x="20" y="20" width="216" height="216" rx="48" fill="url(#bg)"/>
  <rect x="38" y="38" width="180" height="180" rx="40" fill="none" stroke="url(#frame)" stroke-width="12"/>
  <circle cx="128" cy="118" r="72" fill="url(#glow)"/>
  <path d="M104 76h52c14 0 26 12 26 26v44c0 14-12 26-26 26h-52c-14 0-26-12-26-26v-44c0-14 12-26 26-26z" fill="#f8fafc" fill-opacity="0.94"/>
  <rect x="82" y="92" width="92" height="80" rx="18" fill="#dbeafe"/>
  <path d="M118 102l34 26-34 26z" fill="#f59e0b"/>
  <circle cx="102" cy="96" r="8" fill="#60a5fa"/>
  <circle cx="156" cy="160" r="7" fill="#10b981"/>
  <path d="M60 190c14-18 30-28 48-30 19-2 35 4 53 15 15 9 30 13 45 10" fill="none" stroke="#93c5fd" stroke-width="10" stroke-linecap="round" opacity="0.85"/>
</svg>
